<svg width="16" height="16" viewBox="0 0 16 16" fill="none" xmlns="http://www.w3.org/2000/svg">
<path fill-rule="evenodd" clip-rule="evenodd" d="M0 8C0 3.58172 3.58172 0 8 0C12.4183 0 16 3.58172 16 8C16 12.4183 12.4183 16 8 16C3.58172 16 0 12.4183 0 8ZM6.8604 4.05705C6.82762 3.48328 7.28407 3 7.85878 3H8.14124C8.71595 3 9.1724 3.48328 9.13961 4.05705L8.84565 9.2013C8.82004 9.6496 8.44904 10 8.00001 10C7.55099 10 7.17999 9.6496 7.15437 9.2013L6.8604 4.05705ZM7.99999 10.8C7.33725 10.8 6.79999 11.3373 6.79999 12C6.79999 12.6627 7.33725 13.2 7.99999 13.2C8.66273 13.2 9.19999 12.6627 9.19999 12C9.19999 11.3373 8.66273 10.8 7.99999 10.8Z" fill="#E85943"/>
</svg>
