<?xml version="1.0" standalone="no"?>
<!DOCTYPE svg PUBLIC "-//W3C//DTD SVG 20010904//EN"
 "http://www.w3.org/TR/2001/REC-SVG-20010904/DTD/svg10.dtd">
<svg version="1.0" xmlns="http://www.w3.org/2000/svg"
 width="900.000000pt" height="512.000000pt" viewBox="0 0 900.000000 512.000000"
 preserveAspectRatio="xMidYMid meet">

<g transform="translate(0.000000,512.000000) scale(0.100000,-0.100000)"
fill="#000000" stroke="none">
<path d="M3620 4198 l0 -203 115 0 115 0 0 203 0 202 -115 0 -115 0 0 -202z"/>
<path d="M3030 4210 c-47 -28 -86 -54 -88 -59 -3 -8 169 -315 187 -334 4 -4
44 15 90 42 45 27 87 51 93 53 10 4 -180 348 -192 348 -3 0 -43 -23 -90 -50z"/>
<path d="M4299 4188 c-23 -40 -68 -118 -100 -172 l-58 -99 76 -44 c42 -24 84
-50 93 -58 16 -15 25 -3 119 161 56 97 101 177 99 179 -2 1 -34 20 -73 42
-125 72 -108 73 -156 -9z"/>
<path d="M3637 3779 c-435 -46 -764 -470 -698 -899 25 -157 85 -290 188 -415
l53 -63 -36 -43 c-48 -58 -101 -165 -119 -241 -77 -329 135 -666 463 -733 63
-13 237 -15 1295 -13 1372 4 1260 -3 1427 80 67 34 103 61 170 128 94 94 139
163 176 269 38 110 50 214 37 320 -31 246 -154 426 -387 566 -12 7 -18 30 -22
90 -12 162 -60 317 -143 459 -61 105 -201 251 -307 322 -396 264 -914 217
-1263 -113 l-71 -68 -47 60 c-170 212 -439 323 -716 294z m195 -233 c93 -18
155 -45 236 -103 83 -59 205 -224 187 -253 -3 -6 -30 -10 -58 -10 -193 0 -409
-87 -553 -223 -107 -100 -200 -248 -233 -374 -7 -24 -18 -43 -25 -43 -24 0
-132 127 -164 193 -80 162 -82 330 -7 492 42 93 100 163 179 220 139 99 280
131 438 101z m1461 -7 c415 -64 716 -463 658 -873 -6 -44 -10 -81 -8 -83 2 -2
30 -10 62 -18 254 -67 417 -343 350 -594 -47 -177 -198 -325 -368 -361 -36 -7
-423 -10 -1262 -8 l-1210 3 -67 33 c-78 38 -138 100 -177 182 -23 48 -26 68
-26 155 0 93 2 105 32 166 55 111 165 192 281 206 l49 5 6 67 c17 194 148 380
332 470 117 58 268 76 390 46 33 -8 63 -14 66 -15 4 0 10 17 14 37 35 189 214
411 410 510 137 70 311 96 468 72z"/>
<path d="M2510 3689 c-29 -49 -51 -92 -49 -93 13 -11 341 -197 344 -194 1 1
14 26 28 53 14 28 37 67 52 89 14 21 23 42 18 46 -14 13 -324 190 -332 190 -5
0 -32 -41 -61 -91z"/>
<path d="M2330 2990 l0 -110 195 0 195 0 0 110 0 110 -195 0 -195 0 0 -110z"/>
<path d="M2630 2479 c-85 -50 -159 -94 -163 -98 -6 -6 71 -154 98 -189 2 -2
329 182 343 193 2 2 -14 30 -36 63 -21 33 -45 74 -52 91 -7 17 -18 31 -24 31
-6 -1 -81 -42 -166 -91z"/>
<path d="M3840 760 l-180 -360 120 0 120 0 180 360 180 360 -120 0 -120 0
-180 -360z"/>
<path d="M4320 760 l-180 -360 120 0 120 0 180 360 180 360 -120 0 -120 0
-180 -360z"/>
<path d="M4800 760 l-180 -360 120 0 120 0 180 360 180 360 -120 0 -120 0
-180 -360z"/>
<path d="M5280 760 l-180 -360 120 0 120 0 180 360 180 360 -120 0 -120 0
-180 -360z"/>
</g>
</svg>
